HIERARCHY
ROOT Hips
{
  OFFSET -107.9 92.6072 40.8889
  CHANNELS 6 Xposition Yposition Zposition Zrotation Xrotation Yrotation
  JOINT ToSpine
  {
    OFFSET -2.69724 7.43032 -0.144315
    CHANNELS 3 Zrotation Xrotation Yrotation
    JOINT Spine
    {
      OFFSET -0.0310711 10.7595 1.96963
      CHANNELS 3 Zrotation Xrotation Yrotation
      JOINT Spine1
      {
        OFFSET 13.1342 3.43533 0.764692
        CHANNELS 3 Zrotation Xrotation Yrotation
        JOINT Neck
        {
          OFFSET 29.8703 7.82586 -0.130764
          CHANNELS 3 Zrotation Xrotation Yrotation
          JOINT Head
          {
            OFFSET 9.52751 0.295786 -0.907742
            CHANNELS 3 Zrotation Xrotation Yrotation
            End Site
            {
              OFFSET 16.4037 0.713936 2.7358
            }
          }
        }
        JOINT LeftShoulder
        {
          OFFSET 27.5574 4.95586 2.47156
          CHANNELS 3 Zrotation Xrotation Yrotation
          JOINT LeftArm
          {
            OFFSET 1.20734 -0.998971 20.1238
            CHANNELS 3 Zrotation Xrotation Yrotation
            JOINT LeftForeArm
            {
              OFFSET 26.8049 -0.0536703 -0.155908
              CHANNELS 3 Zrotation Xrotation Yrotation
              JOINT LeftHand
              {
                OFFSET 26.6817 0 0.320147
                CHANNELS 3 Zrotation Xrotation Yrotation
                End Site
                {
                  OFFSET 18.6119 0 0.382219
                }
              }
            }
          }
        }
        JOINT RightShoulder
        {
          OFFSET 27.5927 4.71444 -2.65209
          CHANNELS 3 Zrotation Xrotation Yrotation
          JOINT RightArm
          {
            OFFSET 2.83739 -1.17114 -18.7564
            CHANNELS 3 Zrotation Xrotation Yrotation
            JOINT RightForeArm
            {
              OFFSET 28.839 -0.0548439 1.22491
              CHANNELS 3 Zrotation Xrotation Yrotation
              JOINT RightHand
              {
                OFFSET 26.5114 0 -0.101894
                CHANNELS 3 Zrotation Xrotation Yrotation
                End Site
                {
                  OFFSET 18.2168 0 0
                }
              }
            }
          }
        }
      }
    }
  }
  JOINT LeftUpLeg
  {
    OFFSET -4.76168 -1.9167 -10.2353
    CHANNELS 3 Zrotation Xrotation Yrotation
    JOINT LeftLeg
    {
      OFFSET 2.55951 -42.0585 -8.02213
      CHANNELS 3 Zrotation Xrotation Yrotation
      JOINT LeftFoot
      {
        OFFSET 3.16357 -42.5282 -3.95426
        CHANNELS 3 Zrotation Xrotation Yrotation
        JOINT LeftToeBase
        {
          OFFSET 0.346054 -6.02161 12.8035
          CHANNELS 3 Zrotation Xrotation Yrotation
          End Site
          {
            OFFSET 0.134235 -1.35082 5.13018
          }
        }
      }
    }
  }
  JOINT RightUpLeg
  {
    OFFSET -4.94151 -1.41743 10.6446
    CHANNELS 3 Zrotation Xrotation Yrotation
    JOINT RightLeg
    {
      OFFSET -2.56294 -42.0364 -7.94377
      CHANNELS 3 Zrotation Xrotation Yrotation
      JOINT RightFoot
      {
        OFFSET -3.0952 -42.555 -4.02241
        CHANNELS 3 Zrotation Xrotation Yrotation
        JOINT RightToeBase
        {
          OFFSET -0.0828122 -6.13587 12.8035
          CHANNELS 3 Zrotation Xrotation Yrotation
          End Site
          {
            OFFSET -0.131328 -1.35082 5.13018
          }
        }
      }
    }
  }
}
MOTION
Frames:	8
Frame Time:	0.0333333
29.7657 92.9804 7.76937 13.4175 -71.7905 -84.9155 -70.1915 0 88.8779 64.996 65.5685 17.9389 7.84417 16.5151 0.42257 -135.478 42.6882 152.327 -124.728 83.5903 148.747 0.0265744 -15.0775 -31.3359 -85.0815 43.7548 -75.8642 12.8209 15.671 -39.6861 0.420957 0.000575323 0.35866 -1.55407 5.11937 45.0858 -71.7419 -35.0754 79.0178 5.8092 -18.9967 24.81 0.58676 0.000331081 0.0646653 -50.7036 6.28269 105.586 -10.2284 67.1073 -11.5252 -12.2166 4.26138 2.27191 5.67853 -12.2396 1.12699 -42.4973 9.83865 81.4489 2.85991 25.523 -15.822 -15.5951 -12.3489 1.45069 -3.46979 13.4095 6.70668 
29.6878 93.2251 9.64605 -2.82858 -71.8275 -102.773 -70.1915 0 88.8779 65.8224 66.4664 17.2576 7.58761 17.3916 0.0251252 -136.842 42.5343 153.057 -128.804 83.4572 153.04 0.0533893 -14.9208 -31.4763 -85.1782 44.1873 -75.1549 12.6114 16.2793 -38.1668 0.420957 0.000575323 0.35866 -1.57671 5.19862 45.0414 -68.467 -35.9441 82.0553 6.17115 -16.21 25.7844 0.58676 0.000331081 0.0646653 -48.2333 6.22612 103.503 -13.5222 71.1741 -11.1307 -10.0403 6.83921 2.34673 2.92121 -7.36236 3.9026 -44.5458 10.6329 82.6442 2.49057 25.6073 -11.4442 -16.6271 -12.6509 1.45448 -3.19755 12.3357 6.3823 
29.3066 93.3415 11.4577 -18.3777 -69.8648 -119.702 -70.1915 0 88.8779 65.8887 67.1781 17.5099 7.23677 18.1977 -0.333057 -137.892 42.1451 154.054 -137.15 83.4036 161.818 0.11222 -14.6622 -31.37 -86.2058 44.7396 -73.19 12.1487 16.417 -36.8746 0.420957 0.000575323 0.35866 -1.61402 5.27594 45.2666 -65.386 -36.3707 84.4854 7.70828 -15.4467 27.6167 0.58676 0.000331081 0.0646653 -45.6067 6.36648 100.924 -15.827 73.5809 -7.96506 -8.81468 5.13922 1.84382 2.52237 -6.96153 5.53103 -46.2262 11.9837 84.0703 1.62695 25.7266 -7.14362 -15.7613 -13.1668 1.40462 -3.29861 12.9337 6.37677 
28.8065 93.2845 13.0791 -28.1796 -66.5683 -130.303 -70.1915 0 88.8779 64.126 67.1062 19.5462 7.62687 18.315 0.111068 -140.383 41.8482 156.037 -142.159 82.8093 166.587 0.150154 -14.4277 -31.6517 -86.714 45.4349 -71.7309 11.6831 16.2985 -35.97 0.420957 0.000575323 0.35866 -1.62587 5.36824 44.9563 -64.1416 -36.3898 86.1848 8.53071 -15.3378 29.5814 0.58676 0.000331081 0.0646653 -41.7396 5.96293 96.7814 -16.4043 74.766 -2.77816 -6.87869 3.80535 1.32739 0.99203 -4.25115 6.17788 -47.0608 13.2646 84.8782 1.15029 25.9031 -2.52552 -17.0222 -12.8606 1.44509 -2.75886 11.449 5.30411 
28.4126 93.2072 14.5788 -37.0612 -62.1421 -140.121 -70.1915 0 88.8779 65.4896 67.7556 19.3072 6.89102 18.9318 -0.0381902 -142.482 41.2944 157.859 -146.681 82.0362 170.926 0.215914 -14.0988 -31.7665 -86.2765 46.3865 -70.8144 10.3298 15.0485 -34.686 0.420957 0.000575323 0.35866 -1.66434 5.50079 44.8959 -65.1861 -36.395 85.9506 10.0637 -16.2876 32.3924 0.58676 0.000331081 0.0646653 -38.5627 5.26633 92.7177 -15.1828 74.7301 0.781604 -4.18572 1.31265 0.599767 0.130871 -3.19699 7.91349 -48.1572 14.3816 85.4645 0.735378 26.2337 3.08291 -17.1063 -12.9038 1.44772 -2.36827 11.4791 3.86743 
27.8148 93.1523 16.1426 -42.9293 -57.2714 -147.166 -70.1915 0 88.8779 64.958 68.2028 20.3856 6.68831 19.538 -0.0448703 -143.1 40.4083 158.241 -149.203 81.1613 173.95 0.20633 -14.1857 -31.5247 -86.0979 47.5496 -69.6786 10.1261 15.4435 -33.4695 0.420957 0.000575323 0.35866 -1.66638 5.50552 44.9043 -65.9809 -36.2586 85.884 11.3361 -16.6339 35.0516 0.58676 0.000331081 0.0646653 -35.6739 3.24655 88.7876 -12.6725 73.4984 2.49295 -1.50788 -0.699374 0.0400958 0.21224 -3.82374 9.473 -48.6303 14.8598 85.713 0.145614 27.447 6.20854 -14.5681 -14.2341 1.32888 -4.7182 13.2982 11.1615 
27.0939 93.281 17.641 -47.807 -51.7242 -153.36 -70.1915 0 88.8779 65.5393 69.0966 19.9296 6.17737 20.1586 0.754876 -145.13 39.8242 160.439 -154.361 80.4204 179.004 0.233548 -14.0296 -31.6859 -85.198 48.9031 -69.4272 9.7825 15.6567 -32.2001 0.420957 0.000575323 0.35866 -1.67911 5.52629 45.0139 -66.8534 -35.2508 85.6418 13.221 -17.544 37.9502 0.58676 0.000331081 0.0646653 -33.1594 1.09989 85.4131 -10.342 71.3117 2.29973 -0.628863 -4.20393 -0.363108 -0.336297 -3.38125 11.1571 -49.3491 15.5672 86.4673 -0.901772 28.7579 10.9937 -11.9523 -13.3788 1.3502 -5.39404 12.909 13.8004 
26.2401 93.5072 19.2053 -51.7777 -45.5713 -159.196 -70.1915 0 88.8779 66.4223 70.3603 19.3669 5.64112 21.3283 0.652429 -146.443 38.9134 161.803 -157.262 79.4038 -177.926 0.252315 -13.9444 -31.6628 -84.0091 50.3275 -69.3514 8.73345 14.5236 -31.1483 0.420957 0.000575323 0.35866 -1.73466 5.56138 45.7612 -67.4246 -33.7208 85.646 13.9655 -17.2121 40.0557 0.58676 0.000331081 0.0646653 -31.2027 -0.893481 83.4914 -8.15354 68.0104 0.169525 -0.259632 -7.24668 -0.644418 -0.922634 -2.27568 10.6736 -50.8326 15.4348 87.0447 -1.61104 29.3601 16.7986 -11.9269 -11.9413 1.3772 -5.22794 10.4941 15.3782 
